HIERARCHY
ROOT Hips
{
	OFFSET 0.00000 0.00000 0.00000
	CHANNELS 6 Xposition Yposition Zposition Zrotation Yrotation Xrotation 
	JOINT LHipJoint
	{
		OFFSET 0 0 0
		CHANNELS 3 Zrotation Yrotation Xrotation
		JOINT LeftHip
		{
			OFFSET 1.74857 -1.85566 0.69197
			CHANNELS 3 Zrotation Yrotation Xrotation
			JOINT LeftKnee
			{
				OFFSET 2.40003 -6.59403 0.00000
				CHANNELS 3 Zrotation Yrotation Xrotation
				JOINT LeftAnkle
				{
					OFFSET 2.82169 -7.75254 0.00000
					CHANNELS 3 Zrotation Yrotation Xrotation
					JOINT LeftToe
					{
						OFFSET 0.16466 -0.45240 2.26890
						CHANNELS 3 Zrotation Yrotation Xrotation
						End Site
						{
							OFFSET 0.00000 -0.00000 1.16486
						}
					}
				}
			}
		}
	}
	JOINT RHipJoint
	{
		OFFSET 0 0 0
		CHANNELS 3 Zrotation Yrotation Xrotation
		JOINT RightHip
		{
			OFFSET -1.64169 -1.85566 0.69197
			CHANNELS 3 Zrotation Yrotation Xrotation
			JOINT RightKnee
			{
				OFFSET -2.41814 -6.64379 0.00000
				CHANNELS 3 Zrotation Yrotation Xrotation
				JOINT RightAnkle
				{
					OFFSET -2.80588 -7.70911 0.00000
					CHANNELS 3 Zrotation Yrotation Xrotation
					JOINT RightToe
					{
						OFFSET -0.19098 -0.52472 2.25401
						CHANNELS 3 Zrotation Yrotation Xrotation
						End Site
						{
							OFFSET -0.00000 -0.00000 1.16333
						}
					}
				}
			}
		}
	}
	JOINT lowerback
	{
		OFFSET 0 0 0
		CHANNELS 3 Zrotation Yrotation Xrotation
		JOINT Chest
		{
			OFFSET -0.02828 2.14690 -0.11061
			CHANNELS 3 Zrotation Yrotation Xrotation
			JOINT Chest2
			{
				OFFSET -0.00167 2.15299 0.00759
				CHANNELS 3 Zrotation Yrotation Xrotation
				JOINT lowerneck
				{
					OFFSET 0 0 0
					CHANNELS 3 Zrotation Yrotation Xrotation
					JOINT Neck
					{
						OFFSET -0.09296 1.90118 0.07197
						CHANNELS 3 Zrotation Yrotation Xrotation
						JOINT Head
						{
							OFFSET 0.08490 1.89526 -0.24604
							CHANNELS 3 Zrotation Yrotation Xrotation
							End Site
							{
								OFFSET 0.03186 1.92109 -0.09483
							}
						}
					}
				}
				JOINT LeftCollar
				{
					OFFSET 0 0 0
					CHANNELS 3 Zrotation Yrotation Xrotation
					JOINT LeftShoulder
					{
						OFFSET 3.21569 1.44644 -0.03720
CHANNELS 3 Zrotation Xrotation Yrotation
						JOINT LeftElbow
						{
OFFSET 0 -5.476510 -0.000000
CHANNELS 3 Zrotation Xrotation Yrotation
							JOINT LeftWrist
							{
OFFSET 0 -3.090580 -0.000000
CHANNELS 3 Zrotation Xrotation Yrotation
								JOINT lhand
								{
									OFFSET 0 0 0
CHANNELS 3 Zrotation Xrotation Yrotation
									JOINT LFingers
									{
OFFSET 0 -0.771610 -0.000000
CHANNELS 3 Zrotation Xrotation Yrotation
										End Site
										{
OFFSET 0 -0.622090 -0.000000
										}
									}
								}
								JOINT LThumb
								{
OFFSET 0 0.000000 0.000000
CHANNELS 3 Zrotation Xrotation Yrotation
									End Site
									{
OFFSET 0 -0.631590 0.631590
									}
								}
							}
						}
					}
				}
				JOINT RightCollar
				{
					OFFSET 0 0 0
					CHANNELS 3 Zrotation Yrotation Xrotation
					JOINT RightShoulder
					{
						OFFSET -3.38693 1.28904 -0.07093
CHANNELS 3 Zrotation Xrotation Yrotation
						JOINT RightElbow
						{
OFFSET 0 -5.141820 -0.000000
CHANNELS 3 Zrotation Xrotation Yrotation
							JOINT RightWrist
							{
OFFSET 0 -3.355650 -0.000000
CHANNELS 3 Zrotation Xrotation Yrotation
								JOINT rhand
								{
									OFFSET 0 0 0
CHANNELS 3 Zrotation Xrotation Yrotation
									JOINT RFingers
									{
OFFSET 0 -0.801040 -0.000000
CHANNELS 3 Zrotation Xrotation Yrotation
										End Site
										{
OFFSET 0 -0.645820 -0.000000
										}
									}
								}
								JOINT RThumb
								{
OFFSET 0 0.000000 0.000000
CHANNELS 3 Zrotation Xrotation Yrotation
									End Site
									{
OFFSET 0 -0.655680 0.655680
									}
								}
							}
						}
					}
				}
			}
		}
	}
}
MOTION
Frames: 12
Frame Time: 0.008333333333333333
-0.496100 17.973000 -1.355800 -0.083000 1.537900 -2.884600 0.000000 0.000000 0.000000 -16.988300 -8.732500 -2.358900 1.529700 7.808900 22.135100 0.848400 4.366100 -19.512100 0.705000 -5.366800 -14.957800 0.000000 0.000000 0.000000 21.545900 2.688200 -4.027500 -1.403900 -7.494800 21.189800 -0.170300 -13.360000 -20.896400 -0.687700 5.301600 -14.770700 0.343600 1.170100 6.483100 1.658100 1.589400 3.442400 1.407900 0.786600 -0.126200 -6.378200 -4.920600 -7.927800 0.837700 -6.051200 32.076300 0.665400 -3.349900 12.080900 0.000000 0.000000 0.000000 15.318000 13.701900 -62.435500 58.444600 -55.881000 33.050200 11.977700 -34.746400 -40.727800 0.000000 0.000000 0.000000 -7.125000 0.000000 0.000000 -34.063600 68.470000 20.043000 0.000000 0.000000 0.000000 -15.357000 16.520800 54.256100 -55.351000 -54.938200 -30.503100 5.530600 -34.363200 0.136000 0.000000 0.000000 0.000000 7.125000 0.000000 -0.000000 24.645900 29.520500 10.179500
-0.543488 17.965084 -1.209128 0.161500 1.264147 -2.999467 0.000000 0.000000 0.000000 -17.004624 -7.735489 -1.393112 1.393900 7.469313 21.113523 0.738859 5.017788 -18.822756 0.804372 -5.723854 -15.985241 0.000000 0.000000 0.000000 21.460277 2.416347 -3.632767 -1.432175 -7.566901 21.406193 -0.298499 -12.601839 -21.290602 -0.382904 3.973795 -11.002990 0.179789 1.109001 6.036497 1.562500 1.496217 3.257765 1.414115 0.739043 -0.068346 -6.433047 -4.931246 -7.763387 1.109065 -6.137706 30.646516 0.781014 -3.362031 11.488545 0.000000 0.000000 0.000000 15.652486 14.452802 -61.886818 59.994885 -56.308587 34.336805 10.077474 -36.864716 -39.320900 0.000000 0.000000 0.000000 -7.125000 0.000000 0.000000 -33.891683 66.771728 18.658373 0.000000 0.000000 0.000000 -15.142913 16.617339 54.133627 -54.678928 -54.716737 -29.953694 6.003672 -34.442170 0.279191 0.000000 0.000000 0.000000 7.125000 0.000000 0.000000 25.020438 29.629479 10.292353
-0.557231 17.952476 -1.091374 0.210305 0.884706 -2.939771 0.000000 0.000000 0.000000 -16.896989 -6.903810 -1.301563 1.405914 7.500071 21.205545 0.739944 4.630185 -18.579024 0.728033 -5.450803 -15.199128 0.000000 0.000000 0.000000 21.474815 2.195357 -3.606629 -1.479401 -7.685110 21.761745 -0.264776 -12.479479 -20.798895 -0.280561 3.406520 -9.412597 0.222496 1.248632 5.830603 1.441767 1.683334 3.092971 1.257013 0.834417 -0.123306 -6.503071 -4.958349 -7.798652 1.344330 -6.227268 30.326569 0.869223 -3.382294 11.384670 0.000000 0.000000 0.000000 16.026947 14.355505 -62.475525 59.697919 -56.228925 34.089864 9.661911 -36.415978 -39.371195 0.000000 0.000000 0.000000 -7.125000 0.000000 0.000000 -34.402546 66.688610 18.903548 0.000000 0.000000 0.000000 -15.298996 16.758397 54.689414 -54.294631 -54.587302 -29.640274 5.910353 -34.835617 0.006585 0.000000 0.000000 0.000000 7.125000 0.000000 0.000000 24.887987 29.385196 10.389063
-0.540212 17.955800 -0.949226 0.305022 0.615707 -2.764931 0.000000 0.000000 0.000000 -17.116046 -6.550100 -0.665248 1.332244 7.308885 20.633782 0.720723 5.240445 -18.785679 1.005441 -6.380498 -17.892452 0.000000 0.000000 0.000000 21.359026 2.207009 -3.362522 -1.505280 -7.749063 21.954490 -0.335231 -12.177881 -21.169107 -0.209380 2.946207 -8.128936 -0.007396 1.281581 5.230136 1.369457 1.713740 2.850529 1.320245 0.848172 -0.044083 -6.549781 -4.841030 -7.920486 1.279019 -6.026787 30.469379 0.873882 -3.305871 11.455776 0.000000 0.000000 0.000000 16.094167 14.448182 -62.685275 59.498151 -56.174675 33.923822 9.622555 -36.496558 -40.396820 0.000000 0.000000 0.000000 -7.125000 0.000000 0.000000 -36.014918 67.483108 20.519769 0.000000 0.000000 0.000000 -15.553568 16.631646 55.237390 -53.364184 -54.265383 -28.883494 6.876756 -35.363052 0.224680 0.000000 0.000000 0.000000 7.125000 0.000000 0.000000 25.632145 29.538397 10.659886
-0.526144 17.963669 -0.847810 0.419692 0.622500 -2.219094 0.000000 0.000000 0.000000 -17.313657 -6.715681 -0.639172 1.289218 7.194570 20.293007 0.724667 5.563837 -19.050218 1.079051 -6.602681 -18.543433 0.000000 0.000000 0.000000 21.223370 2.492949 -3.285830 -1.453531 -7.620627 21.567514 -0.317261 -12.495807 -21.355171 -0.245946 3.189982 -8.808170 -0.073372 1.384910 4.574734 1.130738 1.848231 2.390821 1.114575 0.917808 -0.148800 -6.420033 -4.876755 -8.145560 1.304261 -6.098678 30.552254 0.845331 -3.319955 11.532146 0.000000 0.000000 0.000000 16.850487 14.152008 -64.619452 57.648826 -55.650106 32.392218 6.811947 -33.815864 -40.666794 0.000000 0.000000 0.000000 -7.125000 0.000000 0.000000 -39.328339 66.838312 22.077715 0.000000 0.000000 0.000000 -15.416960 16.719748 55.640953 -52.468041 -53.943680 -28.157473 7.113804 -35.657330 0.426626 0.000000 0.000000 0.000000 7.125000 0.000000 0.000000 25.851352 29.709985 10.651382
-0.518361 17.967658 -0.796239 0.347948 0.787308 -2.109076 0.000000 0.000000 0.000000 -17.220314 -6.522884 -0.560341 1.266337 7.132911 20.109654 0.736602 5.291228 -18.984682 1.155639 -6.825161 -19.198465 0.000000 0.000000 0.000000 21.284988 2.358236 -3.076285 -1.420717 -7.537771 21.318753 -0.334112 -12.464527 -21.488090 -0.226826 3.057384 -8.439107 0.171643 1.364927 4.303106 1.068145 1.831107 2.180491 0.917715 0.911963 -0.203304 -6.377746 -4.886440 -8.072372 1.362230 -6.138483 30.235356 0.858670 -3.326319 11.394447 0.000000 0.000000 0.000000 17.123374 13.879538 -65.380474 56.051554 -55.162525 31.077292 5.695986 -31.517634 -39.561952 0.000000 0.000000 0.000000 -7.125000 0.000000 0.000000 -38.749073 65.678061 20.704675 0.000000 0.000000 0.000000 -15.520168 16.637286 56.305071 -51.413325 -53.549854 -27.306988 6.638331 -35.738906 -0.218629 0.000000 0.000000 0.000000 7.125000 0.000000 0.000000 25.354212 29.146835 10.785863
-0.526008 17.968906 -0.810646 0.216909 0.786248 -1.738424 0.000000 0.000000 0.000000 -16.963228 -6.697870 -1.085724 1.285765 7.185242 20.265261 0.763361 5.014290 -19.071900 1.084023 -6.617326 -18.586564 0.000000 0.000000 0.000000 21.403618 2.455394 -3.402861 -1.378554 -7.429824 20.995175 -0.307266 -12.574722 -21.347195 -0.238472 3.142094 -8.674560 0.770099 1.447983 4.397155 1.024458 1.975439 1.403589 0.515731 0.985973 -1.032997 -6.562795 -4.814306 -7.158492 2.030217 -6.183576 26.788104 1.168588 -3.288316 9.945638 0.000000 0.000000 0.000000 22.378756 11.416564 -72.064980 61.003131 -56.568867 35.177543 4.625938 -37.701350 -40.653843 0.000000 0.000000 0.000000 -7.125000 0.000000 0.000000 -41.476410 66.180773 22.845249 0.000000 0.000000 0.000000 -21.925635 13.064400 66.868836 -57.539535 -55.615138 -32.302614 -0.652193 -37.994879 -1.330161 0.000000 0.000000 0.000000 7.125000 0.000000 0.000000 19.829616 28.375811 8.496825
-0.600346 18.061763 -1.001053 1.277824 1.278386 -0.413984 0.000000 0.000000 0.000000 -17.591872 -7.010165 -2.849793 1.158262 6.832556 19.220316 0.498588 5.795883 -16.714526 1.296494 -7.214004 -20.351034 0.000000 0.000000 0.000000 20.460132 3.614647 -4.356646 -1.229061 -7.031043 19.807301 -0.173081 -13.125089 -20.627980 -0.129402 2.318720 -6.387418 0.807954 1.640538 4.476057 0.409056 2.244109 -0.517510 -0.189273 1.107241 -3.026240 -6.375718 -5.111449 -3.184716 2.646761 -6.872563 19.862757 1.428616 -3.560655 6.897904 0.000000 0.000000 0.000000 38.167179 -11.260257 -50.172515 115.981918 -57.286894 82.295792 -4.015734 -59.272487 -31.032285 0.000000 0.000000 0.000000 -7.125000 0.000000 0.000000 -38.363062 56.613748 12.153591 0.000000 0.000000 0.000000 -34.904112 -12.609762 48.505649 -117.107039 -57.031266 -83.241222 1.280922 -50.370607 -11.062175 0.000000 0.000000 0.000000 7.125000 0.000000 0.000000 19.726508 19.202139 12.925056
-0.555079 17.939115 -1.351660 1.842868 2.498463 -0.583563 0.000000 0.000000 0.000000 -18.745434 -6.000412 -7.288531 1.666193 8.133061 23.118985 0.561280 6.576717 -18.063283 1.097460 -6.656966 -18.703067 0.000000 0.000000 0.000000 19.259030 2.808331 -9.400289 -2.080695 -9.031822 25.895124 -0.397921 -11.904318 -21.488537 -0.182493 2.751517 -7.587665 0.792631 1.706828 7.128666 0.605856 2.352584 0.957055 -0.045366 1.164087 -2.999252 -5.793178 -5.429419 2.000679 2.737752 -7.417945 7.860359 1.739833 -3.790972 2.512324 0.000000 0.000000 0.000000 30.364007 -22.131773 -24.705588 115.530762 -57.385771 81.915981 -1.798881 -57.414769 -25.367986 0.000000 0.000000 0.000000 -7.125000 0.000000 0.000000 -31.891706 52.358961 6.303167 0.000000 0.000000 0.000000 -34.476706 -24.089514 19.969952 -104.877287 -59.144585 -72.846894 -9.722109 -49.548085 -20.870914 0.000000 0.000000 0.000000 7.125000 0.000000 0.000000 11.998589 9.196686 10.157680
-0.509827 17.848482 -1.525012 1.962345 3.805743 0.272322 0.000000 0.000000 0.000000 -18.772173 -7.478339 -10.826167 2.190801 9.252646 26.588766 0.635349 5.464075 -18.031236 1.037578 -6.478419 -18.179186 0.000000 0.000000 0.000000 18.679402 2.616846 -13.251741 -2.712449 -10.214344 29.673704 -0.558681 -11.524287 -22.616714 -0.151728 2.509807 -6.916736 0.503672 1.467190 8.832909 0.657270 2.019776 1.817865 0.167888 1.001722 -3.071299 -6.031590 -5.674434 3.180769 3.220785 -7.770503 2.193985 2.044201 -3.927859 0.528507 0.000000 0.000000 0.000000 21.852749 -20.046468 -30.438516 108.097528 -58.725549 75.605849 10.002993 -44.612038 -22.296535 0.000000 0.000000 0.000000 -7.125000 0.000000 0.000000 -19.092216 51.575157 3.189019 0.000000 0.000000 0.000000 -25.242072 -18.581328 20.019686 -96.591890 -59.835185 -65.705580 -18.335983 -51.433095 -23.374226 0.000000 0.000000 0.000000 7.125000 0.000000 0.000000 6.695137 5.639676 6.046703
-0.407193 17.832959 -1.441490 1.911586 1.239946 -0.027853 0.000000 0.000000 0.000000 -19.040294 -5.497835 -10.908874 2.310338 9.484556 27.323066 0.760232 5.658740 -19.479231 0.873096 -5.957313 -16.660575 0.000000 0.000000 0.000000 18.435302 3.918140 -12.863483 -2.800711 -10.365219 30.167583 -0.600395 -10.652794 -22.132321 -0.202033 2.894151 -7.984123 0.189434 1.669560 9.079473 0.443926 2.251103 1.918472 0.091860 1.117853 -3.107347 -5.126509 -6.311521 2.630011 3.308773 -8.555562 0.964317 1.914665 -4.302789 0.237638 0.000000 0.000000 0.000000 21.702429 -20.603831 -36.509341 102.171954 -59.432689 70.521137 16.850343 -34.217619 -21.528021 0.000000 0.000000 0.000000 -7.125000 0.000000 0.000000 -12.126356 51.977763 2.108991 0.000000 0.000000 0.000000 -24.307499 -18.926702 29.245933 -96.161368 -59.856055 -65.333333 -24.546989 -51.145840 -26.682015 0.000000 0.000000 0.000000 7.125000 0.000000 0.000000 3.260015 1.100708 3.201908
-0.281650 17.892978 -1.329010 0.977981 -1.823583 0.005005 0.000000 0.000000 0.000000 -18.466275 -3.322297 -10.055142 2.121841 9.115482 26.157159 0.807356 6.563328 -20.591127 0.752893 -5.542122 -15.461416 0.000000 0.000000 0.000000 19.243626 5.220385 -10.874348 -2.338794 -9.538744 27.495721 -0.476897 -10.287561 -20.564622 -0.240116 3.153387 -8.706114 -0.892431 1.026788 7.798367 0.228649 1.297864 1.086757 0.601373 0.656394 -3.272303 -5.780121 -6.627569 1.089759 4.159786 -8.885190 -1.206083 2.286385 -4.446206 -0.095047 0.000000 0.000000 0.000000 16.293858 -46.135446 -55.771514 104.391790 -59.202624 72.430266 19.282177 -24.391502 -16.918880 0.000000 0.000000 0.000000 -7.125000 0.000000 0.000000 -8.264533 47.669118 0.547843 0.000000 0.000000 0.000000 -33.266606 -32.348281 34.916759 -109.389703 -58.530655 -76.709104 -28.666022 -52.277730 -29.574478 0.000000 0.000000 0.000000 7.125000 0.000000 0.000000 1.303577 -2.906377 1.368513
